<mxfile host="Electron" agent="Mozilla/5.0 (X11; Linux x86_64) AppleWebKit/537.36 (KHTML, like Gecko) draw.io/24.7.17 Chrome/128.0.6613.36 Electron/32.0.1 Safari/537.36" version="24.7.17">
  <diagram name="Page-1" id="vPzhu9TbLJ_vngM4hq7U">
    <mxGraphModel dx="1019" dy="650" grid="1" gridSize="10" guides="1" tooltips="1" connect="1" arrows="1" fold="1" page="1" pageScale="1" pageWidth="850" pageHeight="1100" math="0" shadow="0">
      <root>
        <mxCell id="0" />
        <mxCell id="1" parent="0" />
        <mxCell id="n9qROB5JZSB9kGLl_WqJ-1" value="" style="shape=note;whiteSpace=wrap;html=1;backgroundOutline=1;darkOpacity=0.05;" vertex="1" parent="1">
          <mxGeometry x="202.62" y="140" width="80" height="100" as="geometry" />
        </mxCell>
        <mxCell id="n9qROB5JZSB9kGLl_WqJ-2" value="" style="shape=note;whiteSpace=wrap;html=1;backgroundOutline=1;darkOpacity=0.05;" vertex="1" parent="1">
          <mxGeometry x="212.62" y="150" width="80" height="100" as="geometry" />
        </mxCell>
        <mxCell id="n9qROB5JZSB9kGLl_WqJ-3" value="Conversations" style="shape=note;whiteSpace=wrap;html=1;backgroundOutline=1;darkOpacity=0.05;" vertex="1" parent="1">
          <mxGeometry x="222.62" y="160" width="80" height="100" as="geometry" />
        </mxCell>
        <mxCell id="n9qROB5JZSB9kGLl_WqJ-9" value="Toxicity" style="shape=mxgraph.signs.safety.biohazard;html=1;pointerEvents=1;verticalLabelPosition=bottom;verticalAlign=top;align=center;sketch=0;" vertex="1" parent="1">
          <mxGeometry x="283.74" y="480" width="58" height="50" as="geometry" />
        </mxCell>
        <mxCell id="n9qROB5JZSB9kGLl_WqJ-10" value="Discussion Quality" style="shape=mxgraph.signs.safety.handle_with_care;html=1;pointerEvents=1;verticalLabelPosition=bottom;verticalAlign=top;align=center;sketch=0;" vertex="1" parent="1">
          <mxGeometry x="183.49" y="480" width="44.5" height="46.5" as="geometry" />
        </mxCell>
        <mxCell id="n9qROB5JZSB9kGLl_WqJ-18" value="" style="shape=flexArrow;endArrow=classic;html=1;rounded=0;exitX=0.5;exitY=1;exitDx=0;exitDy=0;exitPerimeter=0;" edge="1" parent="1" source="n9qROB5JZSB9kGLl_WqJ-3">
          <mxGeometry width="50" height="50" relative="1" as="geometry">
            <mxPoint x="420" y="370" as="sourcePoint" />
            <mxPoint x="263" y="320" as="targetPoint" />
          </mxGeometry>
        </mxCell>
        <mxCell id="n9qROB5JZSB9kGLl_WqJ-19" value="" style="group" vertex="1" connectable="0" parent="1">
          <mxGeometry x="142" y="330" width="220" height="60" as="geometry" />
        </mxCell>
        <mxCell id="n9qROB5JZSB9kGLl_WqJ-5" value="Annotator" style="shape=umlActor;verticalLabelPosition=bottom;verticalAlign=top;html=1;outlineConnect=0;fillColor=#fff2cc;strokeColor=#d6b656;" vertex="1" parent="n9qROB5JZSB9kGLl_WqJ-19">
          <mxGeometry width="30" height="60" as="geometry" />
        </mxCell>
        <mxCell id="n9qROB5JZSB9kGLl_WqJ-6" value="Annotator" style="shape=umlActor;verticalLabelPosition=bottom;verticalAlign=top;html=1;outlineConnect=0;fillColor=#d5e8d4;strokeColor=#82b366;" vertex="1" parent="n9qROB5JZSB9kGLl_WqJ-19">
          <mxGeometry x="67" width="30" height="60" as="geometry" />
        </mxCell>
        <mxCell id="n9qROB5JZSB9kGLl_WqJ-7" value="Annotator" style="shape=umlActor;verticalLabelPosition=bottom;verticalAlign=top;html=1;outlineConnect=0;fillColor=#dae8fc;strokeColor=#6c8ebf;" vertex="1" parent="n9qROB5JZSB9kGLl_WqJ-19">
          <mxGeometry x="130" width="30" height="60" as="geometry" />
        </mxCell>
        <mxCell id="n9qROB5JZSB9kGLl_WqJ-8" value="Annotator" style="shape=umlActor;verticalLabelPosition=bottom;verticalAlign=top;html=1;outlineConnect=0;fillColor=#e1d5e7;strokeColor=#9673a6;" vertex="1" parent="n9qROB5JZSB9kGLl_WqJ-19">
          <mxGeometry x="190" width="30" height="60" as="geometry" />
        </mxCell>
        <mxCell id="n9qROB5JZSB9kGLl_WqJ-20" value="" style="shape=flexArrow;endArrow=classic;html=1;rounded=0;" edge="1" parent="1">
          <mxGeometry width="50" height="50" relative="1" as="geometry">
            <mxPoint x="260" y="410" as="sourcePoint" />
            <mxPoint x="260" y="470" as="targetPoint" />
          </mxGeometry>
        </mxCell>
        <mxCell id="n9qROB5JZSB9kGLl_WqJ-21" value="" style="ellipse;whiteSpace=wrap;html=1;" vertex="1" parent="1">
          <mxGeometry x="359" y="509" width="10" height="10" as="geometry" />
        </mxCell>
        <mxCell id="n9qROB5JZSB9kGLl_WqJ-22" value="" style="ellipse;whiteSpace=wrap;html=1;" vertex="1" parent="1">
          <mxGeometry x="373" y="509" width="10" height="10" as="geometry" />
        </mxCell>
        <mxCell id="n9qROB5JZSB9kGLl_WqJ-23" value="" style="ellipse;whiteSpace=wrap;html=1;" vertex="1" parent="1">
          <mxGeometry x="387" y="509" width="10" height="10" as="geometry" />
        </mxCell>
        <mxCell id="n9qROB5JZSB9kGLl_WqJ-24" value="" style="shape=note;whiteSpace=wrap;html=1;backgroundOutline=1;darkOpacity=0.05;" vertex="1" parent="1">
          <mxGeometry x="607.62" y="140" width="80" height="100" as="geometry" />
        </mxCell>
        <mxCell id="n9qROB5JZSB9kGLl_WqJ-25" value="" style="shape=note;whiteSpace=wrap;html=1;backgroundOutline=1;darkOpacity=0.05;" vertex="1" parent="1">
          <mxGeometry x="617.62" y="150" width="80" height="100" as="geometry" />
        </mxCell>
        <mxCell id="n9qROB5JZSB9kGLl_WqJ-26" value="Conversations" style="shape=note;whiteSpace=wrap;html=1;backgroundOutline=1;darkOpacity=0.05;" vertex="1" parent="1">
          <mxGeometry x="627.62" y="160" width="80" height="100" as="geometry" />
        </mxCell>
        <mxCell id="n9qROB5JZSB9kGLl_WqJ-27" value="Toxicity" style="shape=mxgraph.signs.safety.biohazard;html=1;pointerEvents=1;verticalLabelPosition=bottom;verticalAlign=top;align=center;sketch=0;" vertex="1" parent="1">
          <mxGeometry x="688.74" y="480" width="58" height="50" as="geometry" />
        </mxCell>
        <mxCell id="n9qROB5JZSB9kGLl_WqJ-28" value="Discussion Quality" style="shape=mxgraph.signs.safety.handle_with_care;html=1;pointerEvents=1;verticalLabelPosition=bottom;verticalAlign=top;align=center;sketch=0;" vertex="1" parent="1">
          <mxGeometry x="588.49" y="480" width="44.5" height="46.5" as="geometry" />
        </mxCell>
        <mxCell id="n9qROB5JZSB9kGLl_WqJ-36" value="" style="shape=flexArrow;endArrow=classic;html=1;rounded=0;exitX=0.5;exitY=1;exitDx=0;exitDy=0;exitPerimeter=0;" edge="1" parent="1" source="n9qROB5JZSB9kGLl_WqJ-26">
          <mxGeometry width="50" height="50" relative="1" as="geometry">
            <mxPoint x="810" y="370" as="sourcePoint" />
            <mxPoint x="668" y="320" as="targetPoint" />
          </mxGeometry>
        </mxCell>
        <mxCell id="n9qROB5JZSB9kGLl_WqJ-42" value="" style="shape=flexArrow;endArrow=classic;html=1;rounded=0;" edge="1" parent="1">
          <mxGeometry width="50" height="50" relative="1" as="geometry">
            <mxPoint x="664" y="410" as="sourcePoint" />
            <mxPoint x="664" y="470" as="targetPoint" />
          </mxGeometry>
        </mxCell>
        <mxCell id="n9qROB5JZSB9kGLl_WqJ-43" value="" style="ellipse;whiteSpace=wrap;html=1;" vertex="1" parent="1">
          <mxGeometry x="758" y="509" width="10" height="10" as="geometry" />
        </mxCell>
        <mxCell id="n9qROB5JZSB9kGLl_WqJ-44" value="" style="ellipse;whiteSpace=wrap;html=1;" vertex="1" parent="1">
          <mxGeometry x="772" y="509" width="10" height="10" as="geometry" />
        </mxCell>
        <mxCell id="n9qROB5JZSB9kGLl_WqJ-45" value="" style="ellipse;whiteSpace=wrap;html=1;" vertex="1" parent="1">
          <mxGeometry x="786" y="509" width="10" height="10" as="geometry" />
        </mxCell>
        <mxCell id="n9qROB5JZSB9kGLl_WqJ-46" value="" style="endArrow=none;dashed=1;html=1;dashPattern=1 3;strokeWidth=2;rounded=0;" edge="1" parent="1">
          <mxGeometry width="50" height="50" relative="1" as="geometry">
            <mxPoint x="460" y="560" as="sourcePoint" />
            <mxPoint x="460" y="120" as="targetPoint" />
          </mxGeometry>
        </mxCell>
        <mxCell id="n9qROB5JZSB9kGLl_WqJ-47" value="LLM Annotator" style="sketch=0;aspect=fixed;pointerEvents=1;shadow=0;dashed=0;html=1;strokeColor=#d6b656;labelPosition=center;verticalLabelPosition=bottom;verticalAlign=top;align=center;fillColor=#fff2cc;shape=mxgraph.azure.laptop" vertex="1" parent="1">
          <mxGeometry x="474.75" y="337.5" width="75" height="45" as="geometry" />
        </mxCell>
        <mxCell id="n9qROB5JZSB9kGLl_WqJ-48" value="LLM Annotator" style="sketch=0;aspect=fixed;pointerEvents=1;shadow=0;dashed=0;html=1;strokeColor=#82b366;labelPosition=center;verticalLabelPosition=bottom;verticalAlign=top;align=center;fillColor=#d5e8d4;shape=mxgraph.azure.laptop" vertex="1" parent="1">
          <mxGeometry x="573.25" y="337.5" width="75" height="45" as="geometry" />
        </mxCell>
        <mxCell id="n9qROB5JZSB9kGLl_WqJ-49" value="LLM Annotator" style="sketch=0;aspect=fixed;pointerEvents=1;shadow=0;dashed=0;html=1;strokeColor=#6c8ebf;labelPosition=center;verticalLabelPosition=bottom;verticalAlign=top;align=center;fillColor=#dae8fc;shape=mxgraph.azure.laptop" vertex="1" parent="1">
          <mxGeometry x="683.25" y="337.5" width="75" height="45" as="geometry" />
        </mxCell>
        <mxCell id="n9qROB5JZSB9kGLl_WqJ-50" value="LLM Annotator" style="sketch=0;aspect=fixed;pointerEvents=1;shadow=0;dashed=0;html=1;strokeColor=#9673a6;labelPosition=center;verticalLabelPosition=bottom;verticalAlign=top;align=center;fillColor=#e1d5e7;shape=mxgraph.azure.laptop" vertex="1" parent="1">
          <mxGeometry x="766.5" y="337.5" width="75" height="45" as="geometry" />
        </mxCell>
        <mxCell id="n9qROB5JZSB9kGLl_WqJ-52" value="SDB prompt" style="rounded=0;whiteSpace=wrap;html=1;fillColor=#d5e8d4;strokeColor=#82b366;" vertex="1" parent="1">
          <mxGeometry x="573.25" y="270" width="74.5" height="20" as="geometry" />
        </mxCell>
        <mxCell id="n9qROB5JZSB9kGLl_WqJ-53" value="SDB prompt" style="rounded=0;whiteSpace=wrap;html=1;fillColor=#fff2cc;strokeColor=#d6b656;" vertex="1" parent="1">
          <mxGeometry x="475" y="270" width="74.5" height="20" as="geometry" />
        </mxCell>
        <mxCell id="n9qROB5JZSB9kGLl_WqJ-54" value="SDB prompt" style="rounded=0;whiteSpace=wrap;html=1;fillColor=#dae8fc;strokeColor=#6c8ebf;" vertex="1" parent="1">
          <mxGeometry x="683.25" y="270" width="74.5" height="20" as="geometry" />
        </mxCell>
        <mxCell id="n9qROB5JZSB9kGLl_WqJ-55" value="SDB prompt" style="rounded=0;whiteSpace=wrap;html=1;fillColor=#e1d5e7;strokeColor=#9673a6;" vertex="1" parent="1">
          <mxGeometry x="766.75" y="270" width="74.5" height="20" as="geometry" />
        </mxCell>
        <mxCell id="n9qROB5JZSB9kGLl_WqJ-56" value="" style="endArrow=none;dashed=1;html=1;dashPattern=1 3;strokeWidth=2;rounded=0;" edge="1" parent="1" source="n9qROB5JZSB9kGLl_WqJ-47" target="n9qROB5JZSB9kGLl_WqJ-53">
          <mxGeometry width="50" height="50" relative="1" as="geometry">
            <mxPoint x="450" y="310" as="sourcePoint" />
            <mxPoint x="500" y="260" as="targetPoint" />
          </mxGeometry>
        </mxCell>
        <mxCell id="n9qROB5JZSB9kGLl_WqJ-57" value="" style="endArrow=none;dashed=1;html=1;dashPattern=1 3;strokeWidth=2;rounded=0;" edge="1" parent="1" source="n9qROB5JZSB9kGLl_WqJ-48" target="n9qROB5JZSB9kGLl_WqJ-52">
          <mxGeometry width="50" height="50" relative="1" as="geometry">
            <mxPoint x="521" y="348" as="sourcePoint" />
            <mxPoint x="518" y="300" as="targetPoint" />
          </mxGeometry>
        </mxCell>
        <mxCell id="n9qROB5JZSB9kGLl_WqJ-58" value="" style="endArrow=none;dashed=1;html=1;dashPattern=1 3;strokeWidth=2;rounded=0;" edge="1" parent="1" source="n9qROB5JZSB9kGLl_WqJ-49" target="n9qROB5JZSB9kGLl_WqJ-54">
          <mxGeometry width="50" height="50" relative="1" as="geometry">
            <mxPoint x="531" y="358" as="sourcePoint" />
            <mxPoint x="528" y="310" as="targetPoint" />
          </mxGeometry>
        </mxCell>
        <mxCell id="n9qROB5JZSB9kGLl_WqJ-59" value="" style="endArrow=none;dashed=1;html=1;dashPattern=1 3;strokeWidth=2;rounded=0;" edge="1" parent="1" source="n9qROB5JZSB9kGLl_WqJ-50" target="n9qROB5JZSB9kGLl_WqJ-55">
          <mxGeometry width="50" height="50" relative="1" as="geometry">
            <mxPoint x="541" y="368" as="sourcePoint" />
            <mxPoint x="538" y="320" as="targetPoint" />
          </mxGeometry>
        </mxCell>
        <mxCell id="n9qROB5JZSB9kGLl_WqJ-60" value="&lt;b&gt;&lt;u&gt;&lt;font style=&quot;font-size: 18px;&quot;&gt;Traditional annotation procedure&lt;/font&gt;&lt;/u&gt;&lt;/b&gt;" style="text;html=1;align=center;verticalAlign=middle;whiteSpace=wrap;rounded=0;" vertex="1" parent="1">
          <mxGeometry x="94.58000000000001" y="90" width="296.07" height="30" as="geometry" />
        </mxCell>
        <mxCell id="n9qROB5JZSB9kGLl_WqJ-61" value="&lt;b&gt;&lt;u&gt;&lt;font style=&quot;font-size: 18px;&quot;&gt;Our approach&lt;/font&gt;&lt;/u&gt;&lt;/b&gt;" style="text;html=1;align=center;verticalAlign=middle;whiteSpace=wrap;rounded=0;" vertex="1" parent="1">
          <mxGeometry x="519.58" y="90" width="296.07" height="30" as="geometry" />
        </mxCell>
      </root>
    </mxGraphModel>
  </diagram>
</mxfile>
